<svg id="Layer_1" xmlns="http://www.w3.org/2000/svg" viewBox="0 0 27.1 43.2"><style>.st0{fill:#5c9fb9}</style><title>lock</title><path class="st0" d="M13.6 37.4c-4.4 0-8-3.6-8-8s3.6-8 8-8 8 3.6 8 8-3.6 8-8 8zm0-15.5c-4.2 0-7.5 3.4-7.5 7.5 0 4.2 3.4 7.5 7.5 7.5s7.5-3.4 7.5-7.5-3.4-7.5-7.5-7.5zm-7.8 7.3h2.9v.4H5.8v-.4zm7.5 5.1h.4v2.9h-.4v-2.9zm3.9-1.6l2 2-.3.3-2-2 .3-.3zm1.2-3.5h2.9v.4h-2.9v-.4zM25 43H2.2c-1.1 0-2-.9-2-2V18.3c0-1.1.9-2 2-2H25c1.1 0 2 .9 2 2v22.8c-.1 1.1-.9 1.9-2 1.9zM2.2 16.7c-.8 0-1.5.7-1.5 1.5V41c0 .8.7 1.5 1.5 1.5H25c.8 0 1.5-.7 1.5-1.5V18.3c0-.8-.7-1.5-1.5-1.5H2.2zm22.6 0h-3.9v-5.3c.1-4-3-7.4-7-7.6-4-.1-7.4 3-7.6 7v5.8h-4v-5.3C2.3 5.1 7.3.1 13.5.1s11.2 5 11.2 11.2v5.4zm-3.5-.4h3.1v-4.9c0-6-4.8-10.8-10.8-10.8S2.8 5.5 2.8 11.4v4.9h3v-4.9c0-4.3 3.5-7.7 7.7-7.7s7.7 3.5 7.7 7.7v4.9zM25 43.2H2.2C1 43.2 0 42.2 0 41V18.3c0-1.2.9-2.1 2.1-2.2v-4.7C2.1 5.1 7.3 0 13.6 0S25 5.1 25 11.4v4.7c1.2 0 2.1 1 2.1 2.2v22.8c0 1.2-.9 2.1-2.1 2.1zM2.1 16.5c-1 0-1.7.8-1.7 1.8v22.8c0 1 .8 1.8 1.7 1.8H25c1 0 1.8-.8 1.8-1.8V18.3c0-1-.8-1.7-1.7-1.8.9 0 1.7.8 1.7 1.7V41c0 1-.7 1.8-1.7 1.8H2.2c-1 0-1.7-.8-1.7-1.7V18.3c-.1-1 .7-1.7 1.6-1.8zm0 .5c-.7 0-1.3.6-1.3 1.3v22.8c0 .7.6 1.3 1.3 1.3H25c.7 0 1.3-.6 1.3-1.3V18.3c0-.7-.6-1.3-1.3-1.3H2.1zm18.9-.5h3.5H21zm-14.6 0h14.2H6.4zm-3.8 0h3.5-3.5zm22-.4v-4.6c0-6.1-4.9-11-11-11s-11 4.9-11 11v4.7-4.7c0-6.1 4.9-11 11-11s11 4.9 11 11v4.6zm-3.1 0h2.6v-4.6C24 5.6 19.1 1 13.2 1.2 7.7 1.4 3.2 5.8 3 11.4v4.7h2.6v-4.7c0-4.4 3.6-8 7.9-8s8 3.6 8 8v4.7zm-.4 0v-4.6c0-4.2-3.4-7.5-7.5-7.5S6 7.3 6 11.4v4.7-4.7c-.2-4.1 3-7.7 7.1-7.9 4.1-.2 7.7 3 7.9 7.1v.8l.1 4.7zm-14.6 0h14.2v-4.6c0-3.9-3.2-7.1-7.1-7.1-3.9 0-7.1 3.2-7.1 7.1v4.6zm7.1 21.5c-4.5 0-8.2-3.7-8.2-8.2s3.7-8.2 8.2-8.2 8.2 3.7 8.2 8.2c-.1 4.5-3.7 8.2-8.2 8.2zm.4-.5c1.8-.1 3.4-.8 4.7-2-1.3 1.2-2.9 1.9-4.7 2zm-5.6-1.9a7.66 7.66 0 0 1 0 0zm5.2 1.5v-2.2 2.2zm-.4-2.6h.8v2.6c1.6-.1 3.2-.8 4.4-1.9L16.6 33l.6-.6 1.9 1.9c1.1-1.2 1.7-2.8 1.8-4.4h-2.6V29h2.6c-.1-1.6-.7-3.2-1.8-4.4l-1.8 1.8-.6-.6 1.8-1.8c-1.2-1.1-2.8-1.7-4.4-1.8v2.6h-.8v-2.7c-1.6.1-3.2.7-4.4 1.8l1.9 1.9-.8.6-1.9-1.9C7 25.8 6.4 27.4 6.3 29h2.6v.8H6.3c.1 1.7.7 3.2 1.8 4.5l1.9-1.9.6.6-1.9 1.8c1.2 1.1 2.8 1.7 4.4 1.8l.1-2.5zm4-1.1l1.6 1.6-1.6-1.6zm-8.8 1.6L10 33l-1.6 1.6zm10.9 0c1.2-1.3 1.9-3 2-4.8-.1 1.8-.8 3.5-2 4.8zM5.8 29.8c.1 1.8.8 3.4 2 4.7-1.2-1.2-1.9-2.9-2-4.7zm12.9-.4h2.2-2.2zm-12.4 0h0zm14.9-.4c-.1-1.8-.8-3.4-2-4.7 1.3 1.2 2 2.9 2 4.7zM5.8 29c.1-1.8.8-3.4 2-4.7-1.2 1.3-1.9 2.9-2 4.7zm11.4-3.2l1.6-1.6-1.6 1.6zm-3.6-1.5v-2.2 2.2zm.4-2.6c1.8.1 3.4.8 4.7 2-1.3-1.2-2.9-1.9-4.7-2zm-5.6 1.9a7.66 7.66 0 0 0 0 0z"/></svg>