<svg xmlns="http://www.w3.org/2000/svg" viewBox="0 0 21 53"><defs><style>.a{fill:#5c9fb9}</style></defs><title>temp</title><path class="a" d="M11 18.5a.5.5 0 1 0-1 0v17.52a6.5 6.5 0 1 0 1 0zm5 24a5.5 5.5 0 1 1-5.5-5.5 5.51 5.51 0 0 1 5.5 5.5z"/><path class="a" d="M15 33.01V4.5a4.5 4.5 0 1 0-9 0v28.51a10.5 10.5 0 1 0 9 0zm5 9.48a9.5 9.5 0 1 1-13.3-8.66.5.5 0 0 0 .3-.46V4.5a3.5 3.5 0 1 1 7 0v28.83a.5.5 0 0 0 .3.46A9.5 9.5 0 0 1 20 42.5zM18.5 9h2a.5.5 0 0 0 0-1h-2a.5.5 0 0 0 0 1zM20.5 12h-2a.5.5 0 0 0 0 1h2a.5.5 0 0 0 0-1zM20.5 16h-2a.5.5 0 0 0 0 1h2a.5.5 0 0 0 0-1zM20.5 20h-2a.5.5 0 0 0 0 1h2a.5.5 0 0 0 0-1z"/><path class="a" d="M20.5 24h-2a.5.5 0 0 0 0 1h2a.5.5 0 0 0 0-1zM20.5 28h-2a.5.5 0 0 0 0 1h2a.5.5 0 0 0 0-1z"/></svg>