<svg xmlns="http://www.w3.org/2000/svg" viewBox="0 0 54.25 58.86"><defs><style>.a{fill:none;stroke:#5C9FB9;stroke-miterlimit:10;}</style></defs><title>alarm</title><rect class="a" x="3.67" y="53.35" width="47.12" height="5.01" rx="1.92" ry="1.92"/><path class="a" d="M27.11,10h0A17.46,17.46,0,0,1,44.57,27.5V53.35a0,0,0,0,1,0,0H9.65a0,0,0,0,1,0,0V27.5A17.46,17.46,0,0,1,27.11,10Z"/><path class="a" d="M21.25,27.94c.5-7.23,6.13-13.17,13.63-13.17" transform="translate(-7.76 -1.25)"/><line class="a" y1="27.25" x2="6.92" y2="27.25"/><line class="a" x1="47.33" y1="27.25" x2="54.25" y2="27.25"/><line class="a" x1="27.65" y1="6.92" x2="27.65"/><line class="a" x1="5.94" y1="8.07" x2="10.84" y2="12.96"/><line class="a" x1="43.41" y1="12.96" x2="48.31" y2="8.07"/></svg>
