<?xml version="1.0" encoding="utf-8"?>
<!-- Generator: Adobe Illustrator 20.1.0, SVG Export Plug-In . SVG Version: 6.00 Build 0)  -->
<svg version="1.1" id="Layer_1" xmlns="http://www.w3.org/2000/svg" xmlns:xlink="http://www.w3.org/1999/xlink" x="0px" y="0px"
	 viewBox="0 0 27.1 43.2" style="enable-background:new 0 0 27.1 43.2;" xml:space="preserve">
<style type="text/css">
	.st0{fill:#5C9FB9;}
</style>
<title>lock</title>
<path class="st0" d="M13.6,37.4c-4.4,0-8-3.6-8-8s3.6-8,8-8s8,3.6,8,8S18,37.4,13.6,37.4z M13.6,21.9c-4.2,0-7.5,3.4-7.5,7.5
	c0,4.2,3.4,7.5,7.5,7.5s7.5-3.4,7.5-7.5C21.1,25.3,17.7,21.9,13.6,21.9L13.6,21.9z M5.8,29.2h2.9v0.4H5.8V29.2z M13.3,34.3h0.4v2.9
	h-0.4V34.3z M17.2,32.7l2,2L18.9,35l-2-2L17.2,32.7z M18.4,29.2h2.9v0.4h-2.9V29.2z M25,43H2.2c-1.1,0-2-0.9-2-2V18.3
	c0-1.1,0.9-2,2-2H25c1.1,0,2,0.9,2,2v22.8C26.9,42.2,26.1,43,25,43z M2.2,16.7c-0.8,0-1.5,0.7-1.5,1.5c0,0,0,0,0,0v22.8
	c0,0.8,0.7,1.5,1.5,1.5H25c0.8,0,1.5-0.7,1.5-1.5V18.3c0-0.8-0.7-1.5-1.5-1.5H2.2z M24.8,16.7h-3.9v-5.3c0.1-4-3-7.4-7-7.6
	c-4-0.1-7.4,3-7.6,7c0,0.2,0,0.4,0,0.5v5.3H2.3v-5.3c0-6.2,5-11.2,11.2-11.2s11.2,5,11.2,11.2c0,0,0,0,0,0V16.7z M21.3,16.3h3.1
	v-4.9c0-6-4.8-10.8-10.8-10.8S2.8,5.5,2.8,11.4v4.9h3v-4.9c0-4.3,3.5-7.7,7.7-7.7s7.7,3.5,7.7,7.7c0,0,0,0,0,0V16.3z M25,43.2H2.2
	c-1.2,0-2.2-1-2.2-2.2l0,0V18.3c0-1.2,0.9-2.1,2.1-2.2v-4.7C2.1,5.1,7.3,0,13.6,0S25,5.1,25,11.4v4.7c1.2,0,2.1,1,2.1,2.2v22.8
	C27.1,42.3,26.2,43.2,25,43.2L25,43.2z M2.1,16.5c-1,0-1.7,0.8-1.7,1.8v22.8c0,1,0.8,1.8,1.7,1.8c0,0,0,0,0,0H25
	c1,0,1.8-0.8,1.8-1.8V18.3c0-1-0.8-1.7-1.7-1.8l0,0c0.9,0,1.7,0.8,1.7,1.7v22.8c0,1-0.7,1.8-1.7,1.8c0,0,0,0,0,0H2.2
	c-1,0-1.7-0.8-1.7-1.7V18.3C0.4,17.3,1.2,16.6,2.1,16.5L2.1,16.5z M2.1,17c-0.7,0-1.3,0.6-1.3,1.3v22.8c0,0.7,0.6,1.3,1.3,1.3H25
	c0.7,0,1.3-0.6,1.3-1.3V18.3c0-0.7-0.6-1.3-1.3-1.3H2.1z M21,16.5h3.5H21z M6.4,16.5h14.2H6.4z M2.6,16.5h3.5H2.6z M24.6,16.1
	L24.6,16.1v-4.6c0-6.1-4.9-11-11-11s-11,4.9-11,11v4.7v-4.7c0-6.1,4.9-11,11-11s11,4.9,11,11V16.1z M21.5,16.1h2.6v-4.6
	C24,5.6,19.1,1,13.2,1.2C7.7,1.4,3.2,5.8,3,11.4v4.7h2.6v-4.7c0-4.4,3.6-8,7.9-8s8,3.6,8,8L21.5,16.1z M21.1,16.1L21.1,16.1v-4.6
	c0-4.2-3.4-7.5-7.5-7.5S6,7.3,6,11.4l0,0v4.7v-4.7c-0.2-4.1,3-7.7,7.1-7.9c4.1-0.2,7.7,3,7.9,7.1c0,0.3,0,0.5,0,0.8L21.1,16.1z
	 M6.5,16.1h14.2v-4.6c0-3.9-3.2-7.1-7.1-7.1c-3.9,0-7.1,3.2-7.1,7.1L6.5,16.1z M13.6,37.6c-4.5,0-8.2-3.7-8.2-8.2s3.7-8.2,8.2-8.2
	s8.2,3.7,8.2,8.2v0C21.7,33.9,18.1,37.6,13.6,37.6z M14,37.1L14,37.1c1.8-0.1,3.4-0.8,4.7-2l0,0C17.4,36.3,15.8,37,14,37.1z
	 M8.4,35.2c1.3,1.2,3,1.9,4.7,2l0,0C11.4,37.1,9.7,36.4,8.4,35.2L8.4,35.2z M13.6,36.7L13.6,36.7v-2.2V36.7z M13.2,34.1H14v2.6
	c1.6-0.1,3.2-0.8,4.4-1.9L16.6,33l0.6-0.6l1.9,1.9c1.1-1.2,1.7-2.8,1.8-4.4h-2.6V29h2.6c-0.1-1.6-0.7-3.2-1.8-4.4l-1.8,1.8l-0.6-0.6
	l1.8-1.8c-1.2-1.1-2.8-1.7-4.4-1.8v2.6h-0.8v-2.7c-1.6,0.1-3.2,0.7-4.4,1.8l1.9,1.9L10,26.4l-1.9-1.9C7,25.8,6.4,27.4,6.3,29h2.6
	v0.8H6.3C6.4,31.5,7,33,8.1,34.3l1.9-1.9l0.6,0.6l-1.9,1.8c1.2,1.1,2.8,1.7,4.4,1.8L13.2,34.1z M17.2,33l1.6,1.6l0,0L17.2,33
	L17.2,33z M8.4,34.6L8.4,34.6L10,33l0,0L8.4,34.6z M19.3,34.6L19.3,34.6c1.2-1.3,1.9-3,2-4.8l0,0C21.2,31.6,20.5,33.3,19.3,34.6
	L19.3,34.6z M5.8,29.8c0.1,1.8,0.8,3.4,2,4.7l0,0C6.6,33.3,5.9,31.6,5.8,29.8L5.8,29.8z M18.7,29.4h2.2H18.7z M6.3,29.4h2.2
	C8.5,29.4,6.2,29.4,6.3,29.4z M21.2,29L21.2,29c-0.1-1.8-0.8-3.4-2-4.7l0,0C20.5,25.5,21.2,27.2,21.2,29L21.2,29z M5.8,29L5.8,29
	c0.1-1.8,0.8-3.4,2-4.7l0,0C6.6,25.6,5.9,27.2,5.8,29L5.8,29z M17.2,25.8L17.2,25.8l1.6-1.6l0,0L17.2,25.8z M13.6,24.3L13.6,24.3
	v-2.2l0,0V24.3z M14,21.7c1.8,0.1,3.4,0.8,4.7,2l0,0C17.4,22.5,15.8,21.8,14,21.7L14,21.7z M8.4,23.6L8.4,23.6c1.3-1.2,3-1.9,4.7-2
	l0,0C11.4,21.7,9.7,22.4,8.4,23.6L8.4,23.6z"/>
</svg>
