<svg xmlns="http://www.w3.org/2000/svg" viewBox="0 0 21 53"><defs><style>.a{fill:#5C9FB9;}</style></defs><title>temp</title><path class="a" d="M35,26.67a.5.5,0,1,0-1,0V44.19a6.5,6.5,0,1,0,1,0Zm5,24a5.5,5.5,0,1,1-5.5-5.5A5.51,5.51,0,0,1,40,50.67Z" transform="translate(-24 -8.17)"/><path class="a" d="M39,41.18V12.67a4.5,4.5,0,1,0-9,0V41.18a10.5,10.5,0,1,0,9,0Zm5,9.48A9.5,9.5,0,1,1,30.7,42a.5.5,0,0,0,.3-.46V12.67a3.5,3.5,0,1,1,7,0V41.5a.5.5,0,0,0,.3.46A9.5,9.5,0,0,1,44,50.67Z" transform="translate(-24 -8.17)"/><path class="a" d="M42.5,17.17h2a.5.5,0,0,0,0-1h-2a.5.5,0,0,0,0,1Z" transform="translate(-24 -8.17)"/><path class="a" d="M44.5,20.17h-2a.5.5,0,0,0,0,1h2a.5.5,0,0,0,0-1Z" transform="translate(-24 -8.17)"/><path class="a" d="M44.5,24.17h-2a.5.5,0,0,0,0,1h2a.5.5,0,0,0,0-1Z" transform="translate(-24 -8.17)"/><path class="a" d="M44.5,28.17h-2a.5.5,0,0,0,0,1h2a.5.5,0,0,0,0-1Z" transform="translate(-24 -8.17)"/><path class="a" d="M44.5,32.17h-2a.5.5,0,0,0,0,1h2a.5.5,0,0,0,0-1Z" transform="translate(-24 -8.17)"/><path class="a" d="M44.5,36.17h-2a.5.5,0,0,0,0,1h2a.5.5,0,0,0,0-1Z" transform="translate(-24 -8.17)"/></svg>
